Coordinates
version=1
nRows=11
nColumns=40
inDegrees=yes

Units are S.I. units (second, meters, Newtons, ...)
Angles are in degrees.

endheader
time	pelvis_tilt	pelvis_list	pelvis_rotation	pelvis_tx	pelvis_ty	pelvis_tz	hip_flexion_r	hip_adduction_r	hip_rotation_r	knee_angle_r	knee_angle_r_beta	ankle_angle_r	subtalar_angle_r	mtp_angle_r	hip_flexion_l	hip_adduction_l	hip_rotation_l	knee_angle_l	knee_angle_l_beta	ankle_angle_l	subtalar_angle_l	mtp_angle_l	lumbar_extension	lumbar_bending	lumbar_rotation	arm_flex_r	arm_add_r	arm_rot_r	elbow_flex_r	pro_sup_r	wrist_flex_r	wrist_dev_r	arm_flex_l	arm_add_l	arm_rot_l	elbow_flex_l	pro_sup_l	wrist_flex_l	wrist_dev_l
      9.88500000	     -5.73175561	     -2.81997354	      0.42383488	      0.70568968	      0.92147971	      0.46226709	      3.51140583	     -4.12658883	    -11.40744323	     35.09067574	     35.09067574	     10.39424560	      0.42094656	    -19.70487185	     26.41554161	     -2.49093128	     -0.89273616	     23.66630623	     23.66630623	      5.88240564	    -13.03847557	      3.95130484	     -7.90600457	      5.59280269	      2.88701832	     22.27100796	    -19.47796761	     -8.26726620	     48.90004172	     46.30650574	      0.00000000	      0.00000000	     -7.71694199	    -10.97583990	      1.08042650	     45.49754651	     45.56823236	      0.00000000	      0.00000000
      9.89857143	     -5.59888994	     -2.80367255	      0.25267552	      0.70767744	      0.92241317	      0.45983833	      5.04216877	     -4.56271635	    -10.41516289	     38.53434878	     38.53434878	      6.93225593	     -3.07147049	    -23.60157407	     25.73100102	     -2.33380547	     -0.87032506	     23.89398953	     23.89398953	      6.67125252	    -13.26271266	      4.47763005	     -7.95485217	      5.56523826	      2.53499348	     21.14278562	    -19.08801202	     -9.94629519	     45.56984955	     46.45026254	      0.00000000	      0.00000000	     -7.67073299	    -11.62478587	      1.53688103	     47.29071818	     45.58775257	      0.00000000	      0.00000000
      9.91214286	     -5.42820345	     -2.76557778	      0.07970829	      0.70953585	      0.92314875	      0.45744872	      6.81112019	     -5.07116123	     -9.54469499	     42.49619030	     42.49619030	      4.41396434	     -5.45923751	    -23.76813221	     24.99306138	     -2.14836757	     -0.84908746	     24.07279690	     24.07279690	      7.24765883	    -13.56693104	      4.48233526	     -8.05805233	      5.53906464	      2.47780408	     19.21702963	    -19.30580554	    -10.40409975	     43.85437991	     46.50696139	      0.00000000	      0.00000000	     -7.17372008	    -12.07228789	      1.39441139	     48.26840593	     45.63309111	      0.00000000	      0.00000000
      9.92571429	     -5.24863414	     -2.57133929	     -0.04169427	      0.71124595	      0.92371453	      0.45497857	      8.69331346	     -5.80788512	     -8.88920364	     46.52753425	     46.52753425	      1.74100013	     -7.38615905	    -23.51246091	     24.22052089	     -1.79151255	     -0.91103826	     24.17591776	     24.17591776	      7.77979463	    -13.69319935	      4.38198115	     -8.18171371	      5.37502926	      2.07545696	     17.42600806	    -19.30214718	    -10.64190059	     42.58936277	     46.54813007	      0.00000000	      0.00000000	     -6.74030894	    -12.55359991	      1.24463519	     48.96837224	     45.66466500	      0.00000000	      0.00000000
      9.93928571	     -5.11208999	     -2.61055550	     -0.13593612	      0.71273653	      0.92415473	      0.45286381	     10.64936100	     -5.96131536	     -7.89495093	     50.28519231	     50.28519231	     -1.35605491	    -10.42706945	    -22.95684010	     23.59838493	     -1.67138857	     -0.77962448	     24.44420822	     24.44420822	      8.56816675	    -13.84350605	      4.87637711	     -8.23706716	      5.41158935	      1.73330531	     16.36064001	    -18.89402188	    -12.74333657	     39.24473278	     46.72395959	      0.00000000	      0.00000000	     -7.01681329	    -13.45685923	      1.88855952	     51.84177177	     45.69186297	      0.00000000	      0.00000000
      9.95285714	     -4.96057385	     -2.45758831	     -0.23029925	      0.71402840	      0.92445977	      0.45068340	     12.67096291	     -6.42501097	     -7.15109253	     54.00538167	     54.00538167	     -4.08651473	    -12.34688745	    -21.75091607	     22.89667771	     -1.35084505	     -0.79099454	     24.55300950	     24.55300950	      9.09115358	    -14.04947197	      4.75514543	     -8.34389748	      5.27761929	      1.43907988	     14.49543815	    -18.88668490	    -12.91934810	     38.08935551	     46.75835485	      0.00000000	      0.00000000	     -6.47420800	    -13.91222263	      1.62256185	     52.45060823	     45.73453679	      0.00000000	      0.00000000
      9.96642857	     -4.86097890	     -2.57391226	     -0.31695008	      0.71508271	      0.92477133	      0.44877363	     14.74087486	     -6.30364839	     -6.25717575	     57.41470539	     57.41470539	     -6.42047214	    -14.52603996	    -18.91357713	     22.32065528	     -1.30499389	     -0.59316704	     24.75741817	     24.75741817	      9.63115501	    -14.34866627	      4.79224451	     -8.42233327	      5.50871505	      1.60366685	     12.54430293	    -19.05289892	    -13.44832416	     36.28926079	     46.83088586	      0.00000000	      0.00000000	     -5.96480544	    -14.30952168	      1.47803874	     54.01478940	     45.78660809	      0.00000000	      0.00000000
      9.98000000	     -4.68204922	     -2.59661369	     -0.42301556	      0.71592001	      0.92507454	      0.44719536	     16.82913092	     -6.24200217	     -5.43010281	     60.80486924	     60.80486924	     -7.38661502	    -15.27587126	    -13.88941640	     21.66709685	     -1.21281906	     -0.50909676	     24.97100994	     24.97100994	     10.31253287	    -14.44241006	      4.94399516	     -8.64068732	      5.45857839	      1.52522510	     11.05827710	    -18.79756924	    -14.50270911	     34.10106722	     46.94044607	      0.00000000	      0.00000000	     -5.81234685	    -15.02586164	      1.66604546	     56.25132151	     45.83470401	      0.00000000	      0.00000000
      9.99357143	     -4.60211298	     -2.51641970	     -0.48705825	      0.71655926	      0.92534070	      0.44555066	     19.02809295	     -6.28509085	     -4.75466936	     63.94182658	     63.94182658	     -7.34245080	    -15.29762957	     -7.36677868	     21.04059882	     -1.01141942	     -0.54043155	     24.99081145	     24.99081145	     10.97305659	    -14.37013878	      5.18971682	     -8.72334691	      5.45107682	      1.03521921	     10.08184531	    -18.22229520	    -16.20393679	     31.87004487	     47.06853738	      0.00000000	      0.00000000	     -5.83116217	    -15.77244509	      1.89618159	     58.04470887	     45.91885382	      0.00000000	      0.00000000
     10.00714286	     -4.49655544	     -2.47397102	     -0.57517033	      0.71702546	      0.92576867	      0.44415440	     20.90057060	     -6.15491511	     -4.11631430	     66.19473246	     66.19473246	     -8.69934981	    -16.56287482	     -6.50392851	     20.34796902	     -0.85954736	     -0.53792387	     24.91139720	     24.91139720	     11.41216512	    -14.44866211	      5.09162699	     -8.87943815	      5.45323981	      0.82213241	      8.41583457	    -17.92199952	    -16.29438113	     30.95438135	     47.09207925	      0.00000000	      0.00000000	     -5.25290349	    -16.15943727	      1.58030504	     58.66355112	     45.96440718	      0.00000000	      0.00000000
     10.02071429	     -4.39823925	     -2.60561388	     -0.69025275	      0.71728454	      0.92619866	      0.44315883	     22.87428268	     -5.69114605	     -3.52285728	     68.39214296	     68.39214296	     -7.91313455	    -16.71565749	     -1.09350710	     19.71294667	     -0.93466443	     -0.52903970	     24.91802807	     24.91802807	     11.98922934	    -14.41921555	      5.10401048	     -9.08695159	      5.60014631	      0.95677671	      7.05568502	    -17.55074792	    -17.48712738	     29.08317935	     47.18633381	      0.00000000	      0.00000000	     -5.10368172	    -16.69582605	      1.65825052	     61.08225191	     46.07006846	      0.00000000	      0.00000000
